<?xml version="1.0" standalone="no"?>
<!DOCTYPE svg PUBLIC "-//W3C//DTD SVG 20010904//EN"
 "http://www.w3.org/TR/2001/REC-SVG-20010904/DTD/svg10.dtd">
<svg version="1.0" xmlns="http://www.w3.org/2000/svg"
 width="264.000000pt" height="264.000000pt" viewBox="0 0 264.000000 264.000000"
 preserveAspectRatio="xMidYMid meet">
<metadata>
Created by potrace 1.14, written by Peter Selinger 2001-2017
</metadata>
<g transform="translate(0.000000,264.000000) scale(0.100000,-0.100000)"
fill="#000000" stroke="none">
<path d="M1250 2505 l0 -65 -35 0 c-32 0 -35 -2 -35 -30 0 -29 -1 -29 -62 -32
-63 -3 -63 -3 -66 -35 l-3 -33 -95 0 -94 0 0 -29 c0 -27 -3 -29 -52 -35 -29
-3 -74 -6 -100 -6 -47 0 -48 -1 -48 -30 0 -27 -3 -30 -30 -30 -27 0 -30 3 -30
30 l0 30 -70 0 -70 0 0 -95 0 -95 35 0 c33 0 35 -2 35 -35 l0 -35 95 0 95 0 0
-195 0 -195 -30 0 c-28 0 -30 -3 -30 -35 l0 -35 -65 0 -65 0 0 -30 c0 -23 -5
-30 -19 -30 -10 0 -39 -3 -65 -6 l-46 -7 0 37 0 36 -70 0 -70 0 0 -54 c0 -29
3 -74 6 -100 6 -43 9 -46 35 -46 25 0 29 -4 29 -29 0 -26 3 -29 46 -35 26 -3
71 -6 100 -6 l54 0 0 -142 c0 -79 -3 -167 -6 -195 -6 -50 -8 -53 -35 -53 -25
0 -29 -4 -29 -29 0 -29 -1 -30 -65 -36 -63 -7 -65 -8 -65 -36 0 -29 0 -29 -65
-29 l-65 0 0 30 0 30 -64 0 -63 0 -7 -48 c-3 -26 -3 -69 0 -95 6 -44 9 -47 35
-47 26 0 29 -3 29 -35 l0 -35 100 0 100 0 0 -235 0 -235 990 0 990 0 0 235 0
235 94 0 95 0 3 32 c3 29 7 33 34 36 29 3 32 6 38 51 3 26 3 68 0 94 l-7 47
-63 0 -64 0 0 -30 0 -30 -65 0 c-65 0 -65 0 -65 29 0 28 -2 29 -65 36 -64 6
-65 7 -65 36 0 25 -4 29 -29 29 -26 0 -29 3 -35 46 -3 26 -6 114 -6 195 l0
149 54 0 c29 0 74 3 100 6 43 6 46 9 46 35 0 25 4 29 29 29 26 0 29 3 35 46 3
26 6 71 6 100 l0 54 -70 0 -70 0 0 -36 0 -37 -46 7 c-26 3 -55 6 -65 6 -14 0
-19 7 -19 30 l0 30 -65 0 -65 0 0 35 c0 32 -2 35 -30 35 l-30 0 0 195 0 195
95 0 95 0 0 35 c0 33 2 35 35 35 l35 0 0 95 0 95 -70 0 -70 0 0 -30 c0 -27 -3
-30 -30 -30 -27 0 -30 3 -30 30 0 29 -1 30 -47 30 -27 0 -72 3 -100 6 -50 6
-53 8 -53 35 l0 29 -94 0 -95 0 -3 33 -3 32 -67 3 c-68 3 -68 3 -68 32 0 27
-3 30 -30 30 l-30 0 0 65 0 65 -70 0 -70 0 0 -65z m590 -690 l0 -165 -525 0
-525 0 0 165 0 165 525 0 525 0 0 -165z m200 -725 l0 -160 -720 0 -720 0 0
160 0 160 720 0 720 0 0 -160z m200 -755 l0 -195 -295 0 -295 0 0 130 0 130
-330 0 -330 0 0 -130 0 -130 -295 0 -295 0 0 195 0 195 920 0 920 0 0 -195z"/>
<path d="M990 1815 l0 -95 65 0 65 0 0 95 0 95 -65 0 -65 0 0 -95z"/>
<path d="M1520 1815 l0 -95 65 0 65 0 0 95 0 95 -65 0 -65 0 0 -95z"/>
<path d="M990 1090 l0 -100 65 0 65 0 0 100 0 100 -65 0 -65 0 0 -100z"/>
<path d="M1520 1090 l0 -100 65 0 65 0 0 100 0 100 -65 0 -65 0 0 -100z"/>
</g>
</svg>
